inDegrees=no
num_controls=7
num_derivatives=13
num_iterations=30
num_multipliers=7
num_parameters=0
num_slacks=7
num_states=26
objective=0.480389
objective_accelerations=0.011702
objective_balance=0.000403
objective_effort=0.008761
objective_height=0.449637
objective_ligament=0.009888
solver_duration=428.996322
status=Solve_Succeeded
success=true
DataType=double
version=3
OpenSimVersion=4.5
endheader
time	/jointset/ground_pelvis/pelvis_tilt/value	/jointset/ground_pelvis/pelvis_tx/value	/jointset/ground_pelvis/pelvis_ty/value	/jointset/hip_l/hip_flexion_l/value	/jointset/hip_l/hip_adduction_l/value	/jointset/hip_l/hip_rotation_l/value	/jointset/back/lumbar_extension/value	/jointset/patellofemoral_l/patellar_flexion_l/value	/jointset/knee_l/knee_flexion_l/value	/jointset/knee_l/knee_adduction_l/value	/jointset/knee_l/knee_rotation_l/value	/jointset/ankle_l/ankle_angle_l/value	/jointset/subtalar_l/subtalar_angle_l/value	/jointset/ground_pelvis/pelvis_tilt/speed	/jointset/ground_pelvis/pelvis_tx/speed	/jointset/ground_pelvis/pelvis_ty/speed	/jointset/hip_l/hip_flexion_l/speed	/jointset/hip_l/hip_adduction_l/speed	/jointset/hip_l/hip_rotation_l/speed	/jointset/back/lumbar_extension/speed	/jointset/patellofemoral_l/patellar_flexion_l/speed	/jointset/knee_l/knee_flexion_l/speed	/jointset/knee_l/knee_adduction_l/speed	/jointset/knee_l/knee_rotation_l/speed	/jointset/ankle_l/ankle_angle_l/speed	/jointset/subtalar_l/subtalar_angle_l/speed	/forceset/tau_hip_flexion_l	/forceset/tau_hip_adduction_l	/forceset/tau_hip_rotation_l	/forceset/tau_knee_flexion_l	/forceset/tau_ankle_angle_l	/forceset/tau_subtalar_angle_l	/forceset/tau_lumbar_extension	lambda_cid13_p0	lambda_cid13_p1	lambda_cid13_p2	lambda_cid13_p3	lambda_cid13_p4	lambda_cid13_p5	lambda_cid14_p0	/jointset/ground_pelvis/pelvis_tilt/accel	/jointset/ground_pelvis/pelvis_tx/accel	/jointset/ground_pelvis/pelvis_ty/accel	/jointset/hip_l/hip_flexion_l/accel	/jointset/hip_l/hip_adduction_l/accel	/jointset/hip_l/hip_rotation_l/accel	/jointset/back/lumbar_extension/accel	/jointset/patellofemoral_l/patellar_flexion_l/accel	/jointset/knee_l/knee_flexion_l/accel	/jointset/knee_l/knee_adduction_l/accel	/jointset/knee_l/knee_rotation_l/accel	/jointset/ankle_l/ankle_angle_l/accel	/jointset/subtalar_l/subtalar_angle_l/accel	gamma_cid13_p0	gamma_cid13_p1	gamma_cid13_p2	gamma_cid13_p3	gamma_cid13_p4	gamma_cid13_p5	gamma_cid14_p0
0.5	0.1384267312265193	0.1303793772117467	0.8800461480656454	0.1872515103957051	-0.3664805618763697	-0.1489858945313546	-0.3680121257805715	0.5245538964426857	0.5245538964426354	-0.08856913475721284	-0.1744373400465395	0.2927873556468343	0.1528736086752275	0.2150433155936181	0.04854682225696726	-0.08951277594280303	0.1771551951032232	0.005284470896594924	0.1735464748286722	-0.3463420661490102	0.8165127825599987	0.8165127825598641	0.2135384173284145	0.0006930584556218983	0.506734933085716	0.2138982560614224	0.03874820085497555	0.05896939261097426	0.005241502478234606	-0.2056216773926791	0.006845485941915176	-0.04513371502213395	0.02956627134670994	-28.34940421207439	28.01708714771512	-8.690416878732959	3.898553489054675	-460.0739842581779	-25.87071156675995	-21.62281318572616	-0.3794132351619021	-0.03359405571014575	-0.07138072870246631	-0.06368212325943008	-0.07261483140783764	-0.4376299906216128	0.654097490928781	-0.8179765767140735	-0.8179765767141708	-0.244240029952475	0.02057990948372459	-0.5036537691101505	-0.08167968075000201	-2.663560449503887e-08	-8.141862503130024e-07	6.103297352790171e-07	-7.533319066057943e-08	-6.211977424435653e-08	-1.020689962104238e-06	-1.047119647916002e-07
0.51	0.1405576570960707	0.13086317820362	0.8791476133798246	0.189019682230781	-0.3664319452889112	-0.1472726392628519	-0.3714421361760557	0.5326769121807727	0.5326769121806378	-0.08644733758448241	-0.1744302784401625	0.2978287095769291	0.1550073210108511	0.2111034968464691	0.04821392011115814	-0.09017262272694559	0.176453206681226	0.004437961561894308	0.1690883885588575	-0.3396085446395539	0.8079698873001225	0.8079698873000409	0.2107974558172049	0.0007118218746989427	0.5014717490184916	0.2128092206659387	0.03876785120930508	0.06044635900366901	0.00507093849640539	-0.207104195179225	0.005433309086211456	-0.04422827505405703	0.02996135589455217	-28.82569863769982	27.85043958928242	-8.827405393932686	4.010233771638628	-460.7000378887538	-25.77829341357956	-21.3739065377297	-0.4070231747346832	-0.03307148397975906	-0.0600680900212541	-0.07735416226682174	-0.09083920794578319	-0.4524241912876453	0.6906997287266287	-0.8904972195545731	-0.890497219546892	-0.2926218615209701	-0.008509627571491912	-0.5472933764109793	-0.1277117633285092	-2.426948863101374e-08	-7.80716558192247e-07	6.05681741065497e-07	-7.27304364988001e-08	-6.099570750098936e-08	-1.004168482714557e-06	-1.001958595815287e-07
0.52	0.1426480333820715	0.1313436635360382	0.8782431239388131	0.1907800547894542	-0.3663918278394707	-0.1456044701062661	-0.3748032673069055	0.5407108887224308	0.5407108887223055	-0.08435366955682862	-0.1744232360367279	0.3028155031361678	0.1571291037336447	0.2069333988896637	0.0478836903659416	-0.0907037269808238	0.1755953398352873	0.003584643289393472	0.1645292524439877	-0.3325662132190307	0.7987049432830357	0.7987049432830078	0.2079125883133891	0.0006892178661289501	0.4958228589159532	0.2115123334952256	0.03878750156317892	0.06192332539637489	0.004900374514476639	-0.2085867129658692	0.004021132230522102	-0.04332283508595955	0.03035644044201194	-29.3052409801595	27.67944756953146	-8.958089168021175	4.115796048596067	-461.3973486343374	-25.72970680256299	-21.12094763083219	-0.4254690770902885	-0.03305957559337265	-0.04563222264961499	-0.09485780804765105	-0.07397661896787136	-0.4578399596321516	0.7158594731426217	-0.9623863281546325	-0.9623863281546273	-0.2730212284734678	0.012306423953989	-0.5807949761742411	-0.1232500357964179	-2.22256895179007e-08	-7.521577295978849e-07	6.019031240074942e-07	-7.032610106011918e-08	-6.087747634924445e-08	-9.908005086497345e-07	-9.615087623499232e-08
0.53	0.1446955652126706	0.1318208580358833	0.8773339707705792	0.1925311481488116	-0.3663602204403972	-0.1439822646532876	-0.3780924673375582	0.548648722801753	0.5486487228016456	-0.08228947623113324	-0.1744165190201685	0.3077439504713253	0.1592369454748405	0.2025349466269129	0.04755560963536077	-0.09110501084155458	0.1746042769857156	0.002741670967560167	0.1598948657723634	-0.3252252783156883	0.7887520143473385	0.7887520143472962	0.2049167448102806	0.0006479600860505572	0.4898087463978996	0.210028995203563	0.0388265492988025	0.06333112606687098	0.004728348357583649	-0.2100637164873175	0.002694935022447038	-0.04247929376637505	0.03072603156241011	-29.75860433732294	27.53359006106909	-9.096019203068733	4.212061443543592	-462.0288171856287	-25.63786784272191	-20.86466708752627	-0.4527384471730756	-0.03263613446039913	-0.03410425728755437	-0.1040903281799305	-0.08877655106114947	-0.4688778717442177	0.750487689774005	-1.028206100832931	-1.028206100835436	-0.3143214988462478	-0.01319512777355724	-0.6204234423528052	-0.1648846514374452	-2.023800992627617e-08	-7.232180057645305e-07	5.972194640629052e-07	-6.788835600815848e-08	-6.094430101732839e-08	-9.757836922907838e-07	-9.211523566709575e-08
